<svg width="154" height="47" viewBox="0 0 154 47" fill="none" xmlns="http://www.w3.org/2000/svg">
    <path d="M12.9258 18H10.7695V2.78906H4.08984V18H1.94531V0.9375H12.9258V18ZM16.0195 11.0742C16.0195 9.23047 16.4648 7.77344 17.3555 6.70312C18.2539 5.625 19.4375 5.08594 20.9062 5.08594C22.375 5.08594 23.5547 5.60938 24.4453 6.65625C25.3438 7.70312 25.8047 9.12891 25.8281 10.9336V12.2695C25.8281 14.1055 25.3828 15.5586 24.4922 16.6289C23.6016 17.6992 22.4141 18.2344 20.9297 18.2344C19.4609 18.2344 18.2812 17.7148 17.3906 16.6758C16.5078 15.6367 16.0508 14.2305 16.0195 12.457V11.0742ZM18.0938 12.2695C18.0938 13.5742 18.3477 14.6016 18.8555 15.3516C19.3711 16.0938 20.0625 16.4648 20.9297 16.4648C22.7578 16.4648 23.6992 15.1445 23.7539 12.5039V11.0742C23.7539 9.77734 23.4961 8.75391 22.9805 8.00391C22.4648 7.24609 21.7734 6.86719 20.9062 6.86719C20.0547 6.86719 19.3711 7.24609 18.8555 8.00391C18.3477 8.75391 18.0938 9.77344 18.0938 11.0625V12.2695ZM35.3555 5.32031H37.418V18H35.3555V8.75391L30.7617 18H28.6875V5.32031H30.7617V14.5781L35.3555 5.32031ZM45.1406 16.4648C45.8281 16.4648 46.3789 16.2539 46.793 15.832C47.207 15.4023 47.4336 14.793 47.4727 14.0039H49.4297C49.3828 15.2227 48.9492 16.2344 48.1289 17.0391C47.3164 17.8359 46.3203 18.2344 45.1406 18.2344C43.5703 18.2344 42.3711 17.7422 41.543 16.7578C40.7227 15.7656 40.3125 14.293 40.3125 12.3398V10.9453C40.3125 9.03125 40.7227 7.57812 41.543 6.58594C42.3633 5.58594 43.5586 5.08594 45.1289 5.08594C46.4258 5.08594 47.4531 5.49609 48.2109 6.31641C48.9766 7.13672 49.3828 8.25781 49.4297 9.67969H47.4727C47.4258 8.74219 47.1992 8.03906 46.793 7.57031C46.3945 7.10156 45.8398 6.86719 45.1289 6.86719C44.207 6.86719 43.5234 7.17188 43.0781 7.78125C42.6328 8.38281 42.4023 9.375 42.3867 10.7578V12.375C42.3867 13.8672 42.6055 14.9219 43.043 15.5391C43.4883 16.1562 44.1875 16.4648 45.1406 16.4648ZM55.2656 12.5977H54.0938V18H52.0195V5.32031H54.0938V10.6875H55.125L58.582 5.32031H61.0547L56.8242 11.3555L61.3594 18H58.7578L55.2656 12.5977ZM9.79688 37.5469H4.03125L2.70703 42H0.503906L6 24.9375H7.83984L13.3477 42H11.1445L9.79688 37.5469ZM4.59375 35.6953H9.24609L6.91406 27.9375L4.59375 35.6953ZM24.293 42H22.2305V31.1133H17.6484V42H15.5625V29.3203H24.293V42ZM36.5273 42H34.4648V31.1133H29.8828V42H27.7969V29.3203H36.5273V42ZM46.3711 42C46.2461 41.7266 46.1562 41.2656 46.1016 40.6172C45.3672 41.6953 44.4297 42.2344 43.2891 42.2344C42.1406 42.2344 41.2422 41.9141 40.5938 41.2734C39.9531 40.625 39.6328 39.7148 39.6328 38.543C39.6328 37.2539 40.0703 36.2305 40.9453 35.4727C41.8203 34.7148 43.0195 34.3281 44.543 34.3125H46.0664V32.9648C46.0664 32.207 45.8984 31.668 45.5625 31.3477C45.2266 31.0273 44.7148 30.8672 44.0273 30.8672C43.4023 30.8672 42.8945 31.0547 42.5039 31.4297C42.1133 31.7969 41.918 32.2656 41.918 32.8359H39.8438C39.8438 32.1875 40.0352 31.5703 40.418 30.9844C40.8008 30.3906 41.3164 29.9258 41.9648 29.5898C42.6133 29.2539 43.3359 29.0859 44.1328 29.0859C45.4297 29.0859 46.4141 29.4102 47.0859 30.0586C47.7656 30.6992 48.1133 31.6367 48.1289 32.8711V39.2695C48.1367 40.2461 48.2695 41.0938 48.5273 41.8125V42H46.3711ZM43.6055 40.3477C44.1133 40.3477 44.5977 40.207 45.0586 39.9258C45.5195 39.6445 45.8555 39.293 46.0664 38.8711V35.8477H44.8945C43.9102 35.8633 43.1328 36.0859 42.5625 36.5156C41.9922 36.9375 41.707 37.5312 41.707 38.2969C41.707 39.0156 41.8516 39.5391 42.1406 39.8672C42.4297 40.1875 42.918 40.3477 43.6055 40.3477ZM60.5156 36.2695C60.5156 38.2773 60.1523 39.7734 59.4258 40.7578C58.707 41.7422 57.6875 42.2344 56.3672 42.2344C55.0938 42.2344 54.1133 41.7539 53.4258 40.793V46.875H51.3633V29.3203H53.2383L53.3438 30.7266C54.0391 29.6328 55.0352 29.0859 56.332 29.0859C57.7227 29.0859 58.7617 29.5703 59.4492 30.5391C60.1367 31.5078 60.4922 32.957 60.5156 34.8867V36.2695ZM58.4531 35.0859C58.4531 33.6641 58.2344 32.6172 57.7969 31.9453C57.3594 31.2656 56.6562 30.9258 55.6875 30.9258C54.6953 30.9258 53.9414 31.4219 53.4258 32.4141V39.0117C53.9336 39.9805 54.6953 40.4648 55.7109 40.4648C56.6484 40.4648 57.3359 40.1289 57.7734 39.457C58.2188 38.7773 58.4453 37.7422 58.4531 36.3516V35.0859ZM70.2656 31.0781H66.8086V42H64.7461V31.0781H61.3359V29.3203H70.2656V31.0781ZM78.7852 42C78.6602 41.7266 78.5703 41.2656 78.5156 40.6172C77.7812 41.6953 76.8438 42.2344 75.7031 42.2344C74.5547 42.2344 73.6562 41.9141 73.0078 41.2734C72.3672 40.625 72.0469 39.7148 72.0469 38.543C72.0469 37.2539 72.4844 36.2305 73.3594 35.4727C74.2344 34.7148 75.4336 34.3281 76.957 34.3125H78.4805V32.9648C78.4805 32.207 78.3125 31.668 77.9766 31.3477C77.6406 31.0273 77.1289 30.8672 76.4414 30.8672C75.8164 30.8672 75.3086 31.0547 74.918 31.4297C74.5273 31.7969 74.332 32.2656 74.332 32.8359H72.2578C72.2578 32.1875 72.4492 31.5703 72.832 30.9844C73.2148 30.3906 73.7305 29.9258 74.3789 29.5898C75.0273 29.2539 75.75 29.0859 76.5469 29.0859C77.8438 29.0859 78.8281 29.4102 79.5 30.0586C80.1797 30.6992 80.5273 31.6367 80.543 32.8711V39.2695C80.5508 40.2461 80.6836 41.0938 80.9414 41.8125V42H78.7852ZM76.0195 40.3477C76.5273 40.3477 77.0117 40.207 77.4727 39.9258C77.9336 39.6445 78.2695 39.293 78.4805 38.8711V35.8477H77.3086C76.3242 35.8633 75.5469 36.0859 74.9766 36.5156C74.4062 36.9375 74.1211 37.5312 74.1211 38.2969C74.1211 39.0156 74.2656 39.5391 74.5547 39.8672C74.8438 40.1875 75.332 40.3477 76.0195 40.3477ZM89.9883 39.1289L93.3867 29.3203H95.9648V42H93.9023V33.2578L90.7031 42H89.2852L86.0156 33.0469V42H83.9531V29.3203H86.625L89.9883 39.1289ZM103.816 42.2344C102.238 42.2344 101.027 41.7656 100.184 40.8281C99.3398 39.8828 98.9102 38.5 98.8945 36.6797V35.1445C98.8945 33.2539 99.3047 31.7734 100.125 30.7031C100.953 29.625 102.105 29.0859 103.582 29.0859C105.066 29.0859 106.176 29.5586 106.91 30.5039C107.645 31.4492 108.02 32.9219 108.035 34.9219V36.2812H100.957V36.5742C100.957 37.9336 101.211 38.9219 101.719 39.5391C102.234 40.1562 102.973 40.4648 103.934 40.4648C104.543 40.4648 105.078 40.3516 105.539 40.125C106.008 39.8906 106.445 39.5234 106.852 39.0234L107.93 40.3359C107.031 41.6016 105.66 42.2344 103.816 42.2344ZM103.582 30.8672C102.723 30.8672 102.086 31.1641 101.672 31.7578C101.258 32.3438 101.023 33.2578 100.969 34.5H105.961V34.2188C105.906 33.0156 105.688 32.1562 105.305 31.6406C104.93 31.125 104.355 30.8672 103.582 30.8672ZM119.438 42H117.375V36.5859H112.805V42H110.719V29.3203H112.805V34.8164H117.375V29.3203H119.438V42ZM130.758 31.0781H127.301V42H125.238V31.0781H121.828V29.3203H130.758V31.0781ZM132.012 35.0742C132.012 33.2305 132.457 31.7734 133.348 30.7031C134.246 29.625 135.43 29.0859 136.898 29.0859C138.367 29.0859 139.547 29.6094 140.438 30.6562C141.336 31.7031 141.797 33.1289 141.82 34.9336V36.2695C141.82 38.1055 141.375 39.5586 140.484 40.6289C139.594 41.6992 138.406 42.2344 136.922 42.2344C135.453 42.2344 134.273 41.7148 133.383 40.6758C132.5 39.6367 132.043 38.2305 132.012 36.457V35.0742ZM134.086 36.2695C134.086 37.5742 134.34 38.6016 134.848 39.3516C135.363 40.0938 136.055 40.4648 136.922 40.4648C138.75 40.4648 139.691 39.1445 139.746 36.5039V35.0742C139.746 33.7773 139.488 32.7539 138.973 32.0039C138.457 31.2461 137.766 30.8672 136.898 30.8672C136.047 30.8672 135.363 31.2461 134.848 32.0039C134.34 32.7539 134.086 33.7734 134.086 35.0625V36.2695ZM144.68 42V29.3203H148.934C150.387 29.3203 151.496 29.6172 152.262 30.2109C153.027 30.8047 153.41 31.668 153.41 32.8008C153.41 33.3867 153.258 33.9141 152.953 34.3828C152.648 34.8516 152.203 35.2109 151.617 35.4609C152.266 35.6328 152.785 35.9805 153.176 36.5039C153.574 37.0273 153.773 37.6602 153.773 38.4023C153.773 39.5742 153.406 40.4688 152.672 41.0859C151.945 41.6953 150.914 42 149.578 42H144.68ZM146.742 36.4336V40.2539H149.602C151 40.2539 151.699 39.6133 151.699 38.332C151.699 37.0664 150.992 36.4336 149.578 36.4336H146.742ZM146.742 34.6992H148.91C150.527 34.6992 151.336 34.1055 151.336 32.918C151.336 31.7227 150.574 31.1094 149.051 31.0781H146.742V34.6992Z" fill="#888888"/>
</svg>
